<?xml version="1.0" encoding="utf-8"?>
<!-- Generator: Adobe Illustrator 22.1.0, SVG Export Plug-In . SVG Version: 6.00 Build 0)  -->
<svg version="1.1" id="Layer_1" xmlns="http://www.w3.org/2000/svg" xmlns:xlink="http://www.w3.org/1999/xlink" x="0px" y="0px"
	 viewBox="0 0 1035.1 1427.4" style="enable-background:new 0 0 1035.1 1427.4;" xml:space="preserve">
<style type="text/css">
	.st0{fill:#FFFFFF;}
	.st1{fill:#BFD240;}
</style>
<g>
	<g>
		<path class="st0" d="M331.2,118.2v358.4h-59.7l-0.7-17.8c-10.2,7.1-21.1,12.8-32.7,17c-11.7,4.2-23.6,6.3-35.8,6.3
			c-37.9,0-68.4-10.8-91.6-32.5c-23.2-21.7-34.8-53.6-34.8-95.9c0-43,11.8-75.7,35.3-98.2s55.2-33.7,95.2-33.7
			c11.5,0,22.3,1.7,32.5,5.1v-103L331.2,118.2z M183,396.1c7.8,10,18.9,15,33.5,15c7.4,0,14.9-2.5,22.3-7.6V299.5
			c-9.8-4.4-18.6-6.6-26.4-6.6c-11.8,0-21.7,5.4-29.4,16.2c-7.8,10.8-11.7,25.6-11.7,44.2C171.3,371.9,175.2,386.2,183,396.1z"/>
		<path class="st0" d="M376,476.6V230.4h92.4v246.2H376z"/>
		<path class="st0" d="M711,281.7L611.5,404h100l0.6,72.6H501l-2.2-47.7l101-125.9h-89.2l-0.6-72.6h200.4L711,281.7z"/>
		<path class="st0" d="M772.9,311.6l-24.4-66.5c14.2-6.4,31.1-11.9,50.8-16.5c19.6-4.6,38.9-6.8,57.9-6.8c32.8,0,58,9.1,75.6,27.4
			c17.6,18.3,26.4,43.3,26.4,75.1v152.3h-70.7l-0.4-25.4c-16.2,20.6-34.7,31-55.3,31c-30.5,0-53.5-7.6-69-22.8s-23.4-35.9-23.4-61.9
			c0-48,32.1-72.1,96.4-72.1h29.4c-1.3-9.5-4.8-16.6-10.4-21.3c-5.6-4.7-12.8-7.1-21.6-7.1c-8.1,0-18,1.4-29.7,4.3
			C793,304.1,782.4,307.6,772.9,311.6z M817.6,395.9c0,5.1,1.6,9.2,4.8,12.4c3.2,3.2,7.2,4.8,11.9,4.8c10.5,0,21.3-4.6,32.5-13.7
			v-23.4h-28.4c-6.1,0-11.1,1.9-15,5.6C819.5,385.4,817.6,390.1,817.6,395.9z"/>
	</g>
	<g>
		<path class="st0" d="M206.8,824.7c0,17.9-2.9,32.7-8.6,44.4c-5.8,11.7-15.4,21.8-28.9,30.5c-13.5,8.6-32.5,16.8-56.8,24.6
			l-36.5-66.5c11.5-4.1,20-8.4,25.6-12.9c5.6-4.6,9.1-9.4,10.6-14.5c1.5-5.1,2.3-11.5,2.3-19.3V579.5h92.4V824.7z"/>
		<path class="st0" d="M344,825.7h-92.4V579.5h70.8l0.2,25.4c35.9-22.3,69.4-33.5,100.5-33.5c29.8,0,52.1,8.7,67,26.2
			c14.9,17.4,22.3,40.5,22.3,69.3v158.9h-92.4V675.4c0-8.4-2-15.5-6.1-21.1c-4.1-5.6-10.8-8.4-20.3-8.4c-5.4,0-13,1.4-22.8,4.3
			c-9.8,2.9-18.8,6.2-26.9,9.9V825.7z"/>
		<path class="st0" d="M795.2,725.7H645.5c3.4,10.5,9.7,18.7,19,24.6c9.3,5.9,21.6,8.9,36.8,8.9c23.3,0,45.8-5.6,67.5-16.7
			l25.9,62.4c-10.2,7.5-24.8,13.7-43.9,18.8c-19.1,5.1-38.7,7.6-58.6,7.6c-28.8,0-54.2-4.9-76.4-14.7s-39.5-24.4-52-43.9
			c-12.5-19.5-18.8-42.7-18.8-69.8c0-26.7,5.8-50.1,17.3-70.1s27.3-35.3,47.5-45.9c20.1-10.6,42.7-16,67.8-16
			c25.4,0,46.9,5.8,64.5,17.3c17.6,11.5,30.9,26.9,39.8,46.2c9,19.3,13.5,40.8,13.5,64.5V725.7z M643,680h63.9
			c0-8.5-2.7-16.4-8.1-23.9c-5.4-7.5-13.4-11.2-23.9-11.2c-8.5,0-16,3.6-22.6,10.7C645.8,662.7,642.6,670.9,643,680z"/>
	</g>
	<g>
		<rect x="849.2" y="1121.4" class="st1" width="92.8" height="92.8"/>
		<path class="st0" d="M168.2,1210.8H75.8V965.1H144l0.3,29.9c11.8-8.1,25.4-15.2,40.6-21.3s29.3-9.1,42.1-9.1l18.8,74.1
			c-12.2,0-25.6,2.5-40.1,7.6c-14.6,5.1-27.1,11.7-37.6,19.8V1210.8z"/>
		<path class="st0" d="M270.3,1210.8V964.6h92.4v246.2H270.3z"/>
		<path class="st0" d="M510,1209.7c0,17.9-2.9,32.7-8.6,44.4c-5.8,11.7-15.4,21.8-28.9,30.5c-13.5,8.6-32.5,16.8-56.8,24.6
			l-36.5-66.5c11.5-4.1,20-8.4,25.6-12.9c5.6-4.6,9.1-9.4,10.6-14.5c1.5-5.1,2.3-11.5,2.3-19.3V964.6H510V1209.7z"/>
		<path class="st0" d="M575.1,1045.8l-24.4-66.5c14.2-6.4,31.1-11.9,50.8-16.5c19.6-4.6,38.9-6.8,57.9-6.8c32.8,0,58,9.1,75.6,27.4
			c17.6,18.3,26.4,43.3,26.4,75.1v152.3h-70.7l-0.4-25.4c-16.2,20.6-34.7,31-55.3,31c-30.5,0-53.5-7.6-69-22.8
			c-15.6-15.2-23.4-35.9-23.4-61.9c0-48,32.1-72.1,96.4-72.1h29.4c-1.3-9.5-4.8-16.6-10.4-21.3c-5.6-4.7-12.8-7.1-21.6-7.1
			c-8.1,0-18,1.4-29.7,4.3C595.2,1038.3,584.6,1041.7,575.1,1045.8z M619.8,1130.1c0,5.1,1.6,9.2,4.8,12.4c3.2,3.2,7.2,4.8,11.9,4.8
			c10.5,0,21.3-4.6,32.5-13.7v-23.4h-28.4c-6.1,0-11.1,1.9-15,5.6C621.7,1119.6,619.8,1124.3,619.8,1130.1z"/>
	</g>
</g>
</svg>
